<?xml version="1.0" encoding="utf-8"?>
<!-- Generator: Adobe Illustrator 17.1.0, SVG Export Plug-In . SVG Version: 6.00 Build 0)  -->
<!DOCTYPE svg PUBLIC "-//W3C//DTD SVG 1.1//EN" "http://www.w3.org/Graphics/SVG/1.1/DTD/svg11.dtd">
<svg version="1.1" id="Layer_1" xmlns="http://www.w3.org/2000/svg" xmlns:xlink="http://www.w3.org/1999/xlink" x="0px" y="0px"
	 viewBox="0 0 1024 768" enable-background="new 0 0 1024 768" xml:space="preserve">
<path fill="none" stroke="#FFFFFF" stroke-miterlimit="10" d="M626.6,491.8c9.6-14.9,28.2-16.2,21-34.1c-12-30-37.6-13.2-48.1-30.2
	c-11.5-18.7-4.4-31.4-16.9-51.8c-4.8-7.8-16.1-7.3-18-16.3c-2.6-12-2.5-31.4-12.2-39.6c-30.9-26-19.3-34.1-8.2-72.9
	c9.6-33.6-22.3-20.6-29.1-27.5s19-37.4-18.4-36.2c-32.9,1.1-50.5,21.1-49.4,59.1c1.2,39,27.9,40.9,24.7,75.4
	c-3.2,33.5,10.2,47.5,24,41.6c11.7-5,7,32.7,10.5,49.1c5,23.5-19,14.1-28.3,32c-2.6,5.1,8.6,15.5,1,20.3c-49.7,31.3-24,40-1,54
	c8.8,5.4-46.3,35.9-42.7,54c4.2,21,122.8-35.1,177.4-42.2C646.3,522.2,615.3,509.4,626.6,491.8z"/>
<path fill="none" stroke="#FFFFFF" stroke-miterlimit="10" d="M428.5,330.8c-29.5-15.9-98.5,0.7-84.8,60.7
	c12.9,14.6,11.1,33.2-5.8,46.5c-31.6,20.8-28,34.4-20.1,48.6c16.2,29.3,50.5,37,88.5-6.3c21.9-25,31.8-48.3,29.8-75
	C437.1,379.4,471.9,354.1,428.5,330.8z"/>
</svg>
